<svg xmlns="http://www.w3.org/2000/svg" xmlns:svg="http://www.w3.org/2000/svg" id="svg8" width="600" height="600" version="1.1" viewBox="0 0 158.75 158.75"><title id="title1366">CRISP-DM</title><defs id="defs2"><marker id="Arrow1Lstart" orient="auto" refX="0" refY="0" style="overflow:visible"><path id="path1372" d="M 0.0,0.0 L 5.0,-5.0 L -12.5,0.0 L 5.0,5.0 L 0.0,0.0 z" style="fill-rule:evenodd;stroke:#9400d3;stroke-width:1pt;stroke-opacity:1;fill:#9400d3;fill-opacity:1" transform="scale(0.8) translate(12.5,0)"/></marker><marker id="Arrow1Lstart-3" orient="auto" refX="0" refY="0" style="overflow:visible"><path id="path1372-6" d="M 0,0 5,-5 -12.5,0 5,5 Z" style="fill:#9400d3;fill-opacity:1;fill-rule:evenodd;stroke:#9400d3;stroke-width:1.00000003pt;stroke-opacity:1" transform="matrix(0.8,0,0,0.8,10,0)"/></marker><marker id="Arrow1Lstart-5" orient="auto" refX="0" refY="0" style="overflow:visible"><path id="path1372-3" d="M 0,0 5,-5 -12.5,0 5,5 Z" style="fill:#9400d3;fill-opacity:1;fill-rule:evenodd;stroke:#9400d3;stroke-width:1.00000003pt;stroke-opacity:1" transform="matrix(0.8,0,0,0.8,10,0)"/></marker><marker id="Arrow1Lstart-6" orient="auto" refX="0" refY="0" style="overflow:visible"><path id="path1372-2" d="M 0,0 5,-5 -12.5,0 5,5 Z" style="fill:#9400d3;fill-opacity:1;fill-rule:evenodd;stroke:#9400d3;stroke-width:1.00000003pt;stroke-opacity:1" transform="matrix(0.8,0,0,0.8,10,0)"/></marker><symbol id="MagneticDisk"><title id="title5499">Magnetic Disk (Database)</title><desc id="desc5501">A magnetic disk. (ISO)</desc><path d="m 9.2604167,6.6145833 a 17.197917,17.197917 0 0 1 21.1666663,0 V 33.072917 a 17.197917,17.197917 0 0 1 -21.1666663,0 z" style="stroke-width:.52916664" id="path5503"/><path d="m 30.427083,6.6145833 a 17.197917,17.197917 0 0 1 -21.1666663,0" style="fill:none;stroke-width:.52916664;stroke-linecap:butt" id="path5505"/><path d="m 30.427083,10.583333 a 17.197917,17.197917 0 0 1 -21.1666663,0" style="fill:none;stroke-width:.52916664;stroke-linecap:butt" id="path5507"/><path d="m 30.427083,14.552083 a 17.197917,17.197917 0 0 1 -21.1666663,0" style="fill:none;stroke-width:.52916664;stroke-linecap:butt" id="path5509"/></symbol></defs><metadata id="metadata5"/><g id="layer1" transform="translate(0,-138.24998)"><circle style="opacity:1;fill:none;fill-opacity:1;stroke:#9400d3;stroke-opacity:1;stroke-width:4;stroke-miterlimit:4;stroke-dasharray:none" id="path1368" cx="78.619" cy="217.247" r="74" clip-path="none"/><path style="fill:none;fill-rule:evenodd;stroke:#9400d3;stroke-width:1.88367188;stroke-linecap:butt;stroke-linejoin:miter;stroke-miterlimit:4;stroke-dasharray:none;stroke-opacity:1;marker-start:url(#Arrow1Lstart)" id="path1656" d="m 36.894704,155.39661 -2.238451,2.14662"/><path style="fill:none;fill-rule:evenodd;stroke:#9400d3;stroke-width:1.883672;stroke-linecap:butt;stroke-linejoin:miter;stroke-miterlimit:4;stroke-dasharray:none;stroke-opacity:1;marker-start:url(#Arrow1Lstart-3)" id="path1656-7" d="m 142.79726,179.52093 -2.04344,-2.33302"/><path style="fill:none;fill-rule:evenodd;stroke:#9400d3;stroke-width:1.883672;stroke-linecap:butt;stroke-linejoin:miter;stroke-miterlimit:4;stroke-dasharray:none;stroke-opacity:1;marker-start:url(#Arrow1Lstart-5)" id="path1656-5" d="m 121.01083,278.74276 2.2118,-2.17406"/><path style="fill:none;fill-rule:evenodd;stroke:#9400d3;stroke-width:1.883672;stroke-linecap:butt;stroke-linejoin:miter;stroke-miterlimit:4;stroke-dasharray:none;stroke-opacity:1;marker-start:url(#Arrow1Lstart-6)" id="path1656-9" d="m 17.653432,260.23103 2.146118,2.23893"/><rect style="opacity:1;fill:#ace;fill-opacity:1;stroke:none;stroke-width:4;stroke-miterlimit:4;stroke-dasharray:none;stroke-opacity:1" id="rect17417" width="51.027" height="19.277" x="49.893" y="168.11"/></g></svg>